<?xml version="1.0" encoding="utf-8"?>
<!-- Generator: Adobe Illustrator 27.0.0, SVG Export Plug-In . SVG Version: 6.00 Build 0)  -->
<svg version="1.1" xmlns="http://www.w3.org/2000/svg" xmlns:xlink="http://www.w3.org/1999/xlink" x="0px" y="0px"
	 viewBox="0 0 127.61 112.74" style="enable-background:new 0 0 127.61 112.74;" xml:space="preserve">
<style type="text/css">
	.st0{display:none;}
	.st1{display:inline;fill:none;}
	.st2{fill:url(#SVGID_1_);stroke:#000000;stroke-width:16;stroke-miterlimit:10;}
	.st3{fill:none;stroke:#000000;stroke-width:16;stroke-miterlimit:10;}
</style>
<g id="Layer_1" class="st0">
	<path class="st1" d="M151.66,274.1H93.31c-1.64,0-2.97-1.33-2.97-2.97v-65.83c0-1.64,1.33-2.97,2.97-2.97l0,0h1.92h2.62h53.82
		c1.64,0,2.97,1.33,2.97,2.97v65.83C154.64,272.77,153.3,274.1,151.66,274.1z"/>
	<text transform="matrix(1 0 0 1 90.3333 258.9937)" style="display:inline; font-family:'LEMONMILK-Bold'; font-size:72px;">k</text>
	<path class="st1" d="M92.41,196.52"/>
</g>
<g id="Layer_2">
	<path d="M173.68,278.29c-1.42,0.12-2.84,0.24-4.27,0.36c-0.13-10.85-0.25-21.7-0.38-32.55c-7.64,9.9-15.27,19.8-22.91,29.7
		c-0.01-3.23-0.02-6.46-0.03-9.69c6.39-9.11,12.77-18.22,19.16-27.33c-6.37-6.09-12.75-12.18-19.12-18.27
		c-0.16-3.26-0.32-6.53-0.47-9.79c7.79,7.13,15.59,14.26,23.38,21.39c-0.03-8.9-0.06-17.81-0.09-26.71
		c1.82,0.06,3.64,0.12,5.45,0.18C174.15,229.82,173.92,254.05,173.68,278.29z"/>
	<path d="M118.45,278.29c1.42,0.12,2.84,0.24,4.27,0.36c0.13-10.85,0.25-21.7,0.38-32.55c7.67,9.9,15.35,19.8,23.02,29.7
		c-0.01-3.23-0.02-6.46-0.03-9.69c-6.4-9.11-12.81-18.22-19.21-27.33c6.37-6.09,12.75-12.18,19.12-18.27
		c0.16-3.26,0.32-6.53,0.47-9.79c-7.79,7.13-15.59,14.26-23.38,21.39c0.03-8.9,0.06-17.81,0.09-26.71
		c-1.82,0.06-3.64,0.12-5.45,0.18C117.97,229.82,118.21,254.05,118.45,278.29z"/>
	<linearGradient id="SVGID_1_" gradientUnits="userSpaceOnUse" x1="99.0395" y1="54.3585" x2="99.5927" y2="54.3585">
		<stop  offset="0" style="stop-color:#FFFFFF"/>
		<stop  offset="1" style="stop-color:#000000"/>
	</linearGradient>
	<path class="st2" d="M99.04,16.7c0.18,25.11,0.37,50.21,0.55,75.32"/>
	<path class="st3" d="M30.57,16.9c0.25,25.33,0.5,50.66,0.75,75.99"/>
	
		<rect x="45.79" y="35.56" transform="matrix(0.7071 -0.7071 0.7071 0.7071 -19.6838 61.9969)" class="st3" width="38.4" height="38.4"/>
	<path d="M-7.61,0"/>
</g>
<g id="Layer_3">
</g>
</svg>
